<?xml version="1.0" encoding="UTF-8"?>
<svg width="120px" height="110px" viewBox="0 0 120 110" version="1.1" xmlns="http://www.w3.org/2000/svg" xmlns:xlink="http://www.w3.org/1999/xlink">
    <!-- Generator: Sketch 48.1 (47250) - http://www.bohemiancoding.com/sketch -->
    <title>Group 3</title>
    <desc>Created with Sketch.</desc>
    <defs></defs>
    <g id="MVP" stroke="none" stroke-width="1" fill="none" fill-rule="evenodd" transform="translate(-550.000000, -221.000000)">
        <g id="Group-11-Copy" transform="translate(550.000000, 221.000000)">
            <g id="Group-8">
                <g id="Rectangle-5-Copy">
                    <g id="Group-3">
                        <rect id="Rectangle-5-Copy" fill="#F26522" x="0" y="0" width="120" height="110"></rect>
                        <path d="M20,73.4604939 L42.143867,73.4604939 L42.143867,67.4736626 L26.8387717,67.4736626 L26.8387717,58.1969683 L40.950065,58.1969683 L40.950065,52.210137 L26.8387717,52.210137 L26.8387717,43.5263374 L42.143867,43.5263374 L42.143867,37.5395061 L20,37.5395061 L20,73.4604939 Z M71.7231239,63.6982442 C71.7231239,56.5244995 71.234519,54.9604939 61.5195385,52.6411799 C55.2779506,51.1311249 55.1693717,51.0232237 55.1693717,46.9241016 C55.1693717,43.7960904 55.9837132,42.8249795 60.5971837,42.8249795 C63.7448397,42.8249795 67.2725216,43.2565843 70.2578748,43.9039916 L71.0179268,38.1869133 C67.4353899,37.3776542 63.6362608,37 60.4880394,37 C51.3159532,37 48.3311655,40.2364744 48.3311655,46.7622498 C48.3311655,54.3675993 49.5249675,56.0395061 58.2633037,57.9811659 C64.7763389,59.3833197 64.8849177,59.7064613 64.8849177,63.6982442 C64.8849177,67.149959 64.0705763,68.1750205 59.1313691,68.1750205 C55.5493977,68.1750205 52.2931629,67.5276132 48.9283493,66.5025517 L47.7339818,71.8425377 C50.1221512,72.9749385 54.8984901,74 59.0233558,74 C69.7149805,74 71.7231239,70.4937726 71.7231239,63.6982442 Z M84.3148787,50.3224278 C84.3148787,44.8205899 86.9744953,43.7415778 93.378386,43.7415778 C94.5184641,43.7415778 96.9066335,43.9039916 98.4804615,44.2276953 L98.9147769,38.7258574 C97.286094,38.3487652 94.6813324,38.0790121 92.6731889,38.0790121 C82.7953402,38.0790121 77.6932647,41.0991221 77.6932647,50.5916188 L77.6932647,63.6982442 C77.6932647,69.9008779 79.5385398,73.999438 88.8734943,73.999438 C97.3946728,73.999438 100,69.7929767 100,64.1837996 L100,61.5947325 C100,55.3920988 97.3403834,52.6951305 90.7736244,52.6951305 C88.4397444,52.6951305 86.2144433,53.0188341 84.3148787,53.6662414 L84.3148787,50.3224278 Z M89.7421252,58.3588201 C92.1302946,58.3588201 93.378386,59.1680792 93.378386,61.7565843 L93.378386,64.3996021 C93.378386,67.149959 92.2925974,68.3368723 88.8740598,68.3368723 C85.4543912,68.3368723 84.3148787,67.3657614 84.3148787,64.3996021 L84.3148787,59.4912209 C85.8344172,58.8438136 87.7882712,58.3588201 89.7421252,58.3588201 Z" id="Shape" fill="#FFFFFF" fill-rule="nonzero"></path>
                    </g>
                </g>
            </g>
        </g>
    </g>
</svg>